<svg width="128" height="128" viewBox="0 0 128 128" fill="none" xmlns="http://www.w3.org/2000/svg">
  <!-- 渐变背景 -->
  <defs>
    <linearGradient id="purpleGrad" x1="0%" y1="0%" x2="100%" y2="100%">
      <stop offset="0%" style="stop-color:#6B5CE7"/>
      <stop offset="100%" style="stop-color:#4A3ABA"/>
    </linearGradient>
  </defs>

  <rect x="8" y="8" width="112" height="112" rx="20" fill="url(#purpleGrad)"/>

  <!-- 文档堆叠效果 (后层) -->
  <rect x="36" y="20" width="64" height="76" rx="6" fill="rgba(255,255,255,0.3)"/>

  <!-- 文档堆叠效果 (中层) -->
  <rect x="30" y="28" width="64" height="76" rx="6" fill="rgba(255,255,255,0.6)"/>

  <!-- 主文档 (前层) -->
  <rect x="24" y="36" width="64" height="76" rx="6" fill="#FFFFFF"/>

  <!-- 文档内线条 -->
  <rect x="34" y="48" width="32" height="4" rx="2" fill="#D0D0D0"/>
  <rect x="34" y="58" width="44" height="4" rx="2" fill="#D0D0D0"/>
  <rect x="34" y="68" width="28" height="4" rx="2" fill="#D0D0D0"/>

  <!-- 编辑笔图标 -->
  <g transform="translate(76, 76)">
    <circle cx="16" cy="16" r="20" fill="#FFB800"/>
    <path d="M8 24L10 18L22 6L26 10L14 22L8 24Z" fill="white"/>
    <path d="M22 6L26 10" stroke="white" stroke-width="2"/>
  </g>
</svg>
